<svg xmlns="http://www.w3.org/2000/svg" viewBox="0 0 256 256" fill="none">
	<title>Goods Recycling Favicon</title>
	<g stroke="#2DBA73" stroke-width="9" stroke-linecap="round" stroke-linejoin="round">
		<path d="M128 18v28" />
		<path d="M174 30l-14 22" />
		<path d="M82 30l14 22" />
		<path d="M76 108l13-20" />
		<path d="M180 108l-13-20" />
		<path d="M128 118V95" />
	</g>

	<g fill="#fff" stroke="#2DBA73" stroke-width="8" stroke-linecap="round" stroke-linejoin="round">
		<path d="M103 64l25 7v39l-25-7V64z" />
		<path d="M128 71l26-7v39l-26 7V71z" />
		<path d="M103 64L92 51l23 4 9 14-21-5z" />
		<path d="M128 71l-4-15 18 2 18 3-6 3-26 7z" />
	</g>

	<g fill="none" stroke="#2DBA73" stroke-width="8" stroke-linecap="round" stroke-linejoin="round">
		<path d="M35 92c11-18 24-25 37-23 13 2 21 10 31 18" />
		<path d="M35 92c5 6 11 10 20 12" />
		<path d="M48 88c5 7 12 12 22 14" />
		<path d="M62 85c4 7 10 11 18 13" />

		<path d="M221 92c-11-18-24-25-37-23-13 2-21 10-31 18" />
		<path d="M221 92c-5 6-11 10-20 12" />
		<path d="M208 88c-5 7-12 12-22 14" />
		<path d="M194 85c-4 7-10 11-18 13" />
	</g>
</svg>